<svg width="48" height="48" viewBox="0 0 48 48" fill="none" xmlns="http://www.w3.org/2000/svg">
<path d="M27.5355 21.9645C29.4881 23.9171 29.4881 27.0829 27.5355 29.0355C25.5829 30.9881 22.4171 30.9881 20.4645 29.0355C18.5118 27.0829 18.5118 23.9171 20.4645 21.9645C22.4171 20.0118 25.5829 20.0118 27.5355 21.9645Z" stroke="#2E2E36" stroke-width="2" stroke-linecap="round" stroke-linejoin="round"/>
<path d="M38.5082 9.96447C40.4608 11.9171 40.4608 15.0829 38.5082 17.0355C36.5556 18.9881 33.3897 18.9881 31.4371 17.0355C29.4845 15.0829 29.4845 11.9171 31.4371 9.96447C33.3897 8.01184 36.5556 8.01184 38.5082 9.96447" stroke="#2E2E36" stroke-width="2" stroke-linecap="round" stroke-linejoin="round"/>
<path d="M36 24.5C39.066 24.5 42 25.566 44 27.166" stroke="#2E2E36" stroke-width="2" stroke-linecap="round" stroke-linejoin="round"/>
<path d="M16.5629 9.96447C18.5155 11.9171 18.5155 15.0829 16.5629 17.0355C14.6102 18.9881 11.4444 18.9881 9.49181 17.0355C7.53919 15.0829 7.53919 11.9171 9.49181 9.96447C11.4444 8.01184 14.6102 8.01184 16.5629 9.96447" stroke="#2E2E36" stroke-width="2" stroke-linecap="round" stroke-linejoin="round"/>
<path d="M4 27.166C6 25.566 8.934 24.5 12 24.5" stroke="#2E2E36" stroke-width="2" stroke-linecap="round" stroke-linejoin="round"/>
<path d="M33.1824 39.5C30.8524 37.698 27.5044 36.5 24.0004 36.5C20.4964 36.5 17.1484 37.698 14.8184 39.5" stroke="#2E2E36" stroke-width="2" stroke-linecap="round" stroke-linejoin="round"/>
</svg>
