<svg width="48" height="48" viewBox="0 0 48 48" fill="none" xmlns="http://www.w3.org/2000/svg">
<path d="M40 42H8C5.79 42 4 40.21 4 38V10C4 7.79 5.79 6 8 6H40C42.21 6 44 7.79 44 10V38C44 40.21 42.21 42 40 42Z" stroke="#2E2E36" stroke-width="2" stroke-linecap="round" stroke-linejoin="round"/>
<path d="M4 16H44" stroke="#2E2E36" stroke-width="2" stroke-linecap="round" stroke-linejoin="round"/>
<path d="M9.55883 10.9802C9.55283 10.9802 9.54883 10.9842 9.54883 10.9902C9.54883 10.9962 9.55283 11.0002 9.55883 11.0002C9.56483 11.0002 9.56883 10.9962 9.56883 10.9902C9.56883 10.9842 9.56483 10.9802 9.55883 10.9802Z" stroke="#2E2E36" stroke-width="2" stroke-linecap="round" stroke-linejoin="round"/>
<path d="M14.6448 10.9802C14.6388 10.9802 14.6348 10.9842 14.6348 10.9902C14.6348 10.9962 14.6408 11.0002 14.6448 11.0002C14.6508 11.0002 14.6548 10.9962 14.6548 10.9902C14.6548 10.9842 14.6508 10.9802 14.6448 10.9802Z" stroke="#2E2E36" stroke-width="2" stroke-linecap="round" stroke-linejoin="round"/>
<path d="M19.7229 10.9802C19.7169 10.9802 19.7129 10.9842 19.7129 10.9902C19.7129 10.9962 19.7169 11.0002 19.7229 11.0002C19.7289 11.0002 19.7329 10.9962 19.7329 10.9902C19.7329 10.9842 19.7289 10.9802 19.7229 10.9802Z" stroke="#2E2E36" stroke-width="2" stroke-linecap="round" stroke-linejoin="round"/>
<path d="M18 16V42" stroke="#2E2E36" stroke-width="2" stroke-linecap="round" stroke-linejoin="round"/>
<path d="M18 28H44" stroke="#2E2E36" stroke-width="2" stroke-linecap="round" stroke-linejoin="round"/>
</svg>
