<svg width="48" height="48" viewBox="0 0 48 48" fill="none" xmlns="http://www.w3.org/2000/svg">
<path d="M30.8338 42.65L26.0918 27.502C25.5918 25.904 27.2278 24.472 28.7458 25.18L42.8878 31.782C44.5638 32.564 44.2818 35.03 42.4718 35.412L36.6498 36.644L34.4898 42.718C33.8678 44.462 31.3878 44.414 30.8338 42.65V42.65Z" stroke="#2E2E36" stroke-width="2" stroke-linecap="round" stroke-linejoin="round"/>
<path d="M16 28H18" stroke="#2E2E36" stroke-width="2" stroke-linecap="round" stroke-linejoin="round"/>
<path d="M16 22H20" stroke="#2E2E36" stroke-width="2" stroke-linecap="round" stroke-linejoin="round"/>
<path d="M16 16H28" stroke="#2E2E36" stroke-width="2" stroke-linecap="round" stroke-linejoin="round"/>
<path d="M22.0005 38.4322C17.9265 38.3862 13.8745 36.8682 10.7625 33.7582C4.4125 27.4082 4.4125 17.1142 10.7625 10.7642C17.1125 4.41421 27.4065 4.41421 33.7565 10.7642C36.8665 13.8742 38.3845 17.9282 38.4325 22.0022" stroke="#2E2E36" stroke-width="2" stroke-linecap="round" stroke-linejoin="round"/>
</svg>
