<svg width="48" height="48" viewBox="0 0 48 48" fill="none" xmlns="http://www.w3.org/2000/svg">
<path d="M33.3483 34.0001L32.7803 32.5741C32.4923 31.8521 32.0463 31.2021 31.4763 30.6741C30.5103 29.7781 29.2403 29.2821 27.9243 29.2821H20.0763C18.7583 29.2821 17.4903 29.7801 16.5243 30.6741C15.9543 31.2021 15.5083 31.8521 15.2203 32.5741L14.6523 34.0001" stroke="#2E2E36" stroke-width="2" stroke-linecap="round" stroke-linejoin="round"/>
<path d="M27.8891 15.6109C30.037 17.7588 30.037 21.2412 27.8891 23.3891C25.7412 25.537 22.2588 25.537 20.1109 23.3891C17.963 21.2412 17.963 17.7588 20.1109 15.6109C22.2588 13.463 25.7412 13.463 27.8891 15.6109" stroke="#2E2E36" stroke-width="2" stroke-linecap="round" stroke-linejoin="round"/>
<path d="M15.176 6H10C7.79 6 6 7.79 6 10V15.176" stroke="#2E2E36" stroke-width="2" stroke-linecap="round" stroke-linejoin="round"/>
<path d="M32.8242 42.0001H38.0002C40.2102 42.0001 42.0002 40.2101 42.0002 38.0001V32.8241" stroke="#2E2E36" stroke-width="2" stroke-linecap="round" stroke-linejoin="round"/>
<path d="M6 32.8241V38.0001C6 40.2101 7.79 42.0001 10 42.0001H15.176" stroke="#2E2E36" stroke-width="2" stroke-linecap="round" stroke-linejoin="round"/>
<path d="M42.0002 15.176V10C42.0002 7.79 40.2102 6 38.0002 6H32.8242" stroke="#2E2E36" stroke-width="2" stroke-linecap="round" stroke-linejoin="round"/>
</svg>
