<svg xmlns="http://www.w3.org/2000/svg" width="136.976" height="25" viewBox="0 0 136.976 25">
  <g id="FB_logo_04" transform="translate(580.934 -284)">
    <g id="Group_9" data-name="Group 9" transform="translate(-546.727 287.869)">
      <path id="Path_17" data-name="Path 17" d="M-535.5,305.431h-2.129l-6.36-17.252h2.26l5.129,14.633h.071l5.129-14.633h2.26Z" transform="translate(543.99 -288.179)" fill="#25252e"/>
      <path id="Path_18" data-name="Path 18" d="M-512.49,303.494v1.937h-10.689V288.179h10.689v1.937h-8.536v5.535h8.094v1.913h-8.094v5.93Z" transform="translate(542.448 -288.179)" fill="#25252e"/>
      <path id="Path_19" data-name="Path 19" d="M-503.8,305.431h-2.128V288.179h2.093l9.444,13.545h.107V288.179h2.128v17.252h-2.092l-9.445-13.5h-.107Z" transform="translate(541.171 -288.179)" fill="#25252e"/>
      <path id="Path_20" data-name="Path 20" d="M-482.645,288.179v11.059a4.391,4.391,0,0,0,1.249,3.245,4.66,4.66,0,0,0,3.449,1.249,4.662,4.662,0,0,0,3.45-1.249,4.391,4.391,0,0,0,1.249-3.245V288.179h2.152v11.2a6.041,6.041,0,0,1-1.847,4.574,6.948,6.948,0,0,1-5,1.763,6.947,6.947,0,0,1-5-1.763,6.041,6.041,0,0,1-1.847-4.574v-11.2Z" transform="translate(539.605 -288.179)" fill="#25252e"/>
      <path id="Path_21" data-name="Path 21" d="M-453.052,303.494v1.937H-463.74V288.179h10.688v1.937h-8.536v5.535h8.094v1.913h-8.094v5.93Z" transform="translate(538.046 -288.179)" fill="#25252e"/>
      <path id="Path_22" data-name="Path 22" d="M-444.341,298.6v6.827h-2.152V288.179h6.468a5.616,5.616,0,0,1,4,1.4,4.876,4.876,0,0,1,1.5,3.737,5.3,5.3,0,0,1-.92,3.119,4.76,4.76,0,0,1-2.547,1.83l3.993,7.161h-2.522l-3.694-6.827Zm0-8.512V296.7h4.125a3.572,3.572,0,0,0,2.564-.86,3.226,3.226,0,0,0,.9-2.451,3.14,3.14,0,0,0-.944-2.427,3.707,3.707,0,0,0-2.618-.873Z" transform="translate(536.768 -288.179)" fill="#25252e"/>
    </g>
    <g id="Group_14" data-name="Group 14" transform="translate(-580.934 284)">
      <g id="Group_11" data-name="Group 11">
        <g id="Layer0_0_1_STROKES" data-name="Layer0 0 1 STROKES">
          <g id="Group_10" data-name="Group 10">
            <path id="Path_23" data-name="Path 23" d="M-559.7,309h-8.475v-1.7h8.475a4.719,4.719,0,0,0,3.519-1.462,4.726,4.726,0,0,0,1.469-3.527,4.781,4.781,0,0,0-1.466-3.537,5.994,5.994,0,0,0-.476-.415,5.294,5.294,0,0,1-1.114,1.606,5.046,5.046,0,0,1-3.719,1.553H-567.9v-1.7h6.406a3.362,3.362,0,0,0,2.512-1.05,3.56,3.56,0,0,0,.819-1.223,5.179,5.179,0,0,0-1.574-.236h-15.745a5.33,5.33,0,0,1-3.856-1.59,5.286,5.286,0,0,1-1.6-3.866A5.328,5.328,0,0,1-579.343,288a5.477,5.477,0,0,1,1.853-1.233l0-.02.037-.01a4.326,4.326,0,0,1,.973-1.462A4.2,4.2,0,0,1-573.408,284l6.489,0a2.56,2.56,0,0,1,1.591.642l.017.015a1.858,1.858,0,0,1,.615,1.588,1.945,1.945,0,0,1-.9,1.428l-.02.014a2.6,2.6,0,0,1-1.583.422h-8.278a4.427,4.427,0,0,0-.559.035c0,.069-.007.137-.007.206a2.518,2.518,0,0,0,.771,1.865,2.521,2.521,0,0,0,1.865.771h11.933a5.045,5.045,0,0,1,3.724,1.544,5.11,5.11,0,0,1,1.548,3.729c0,.1,0,.191-.008.287l.021.011-.008.046a7.39,7.39,0,0,1,1.211.958,6.493,6.493,0,0,1,1.972,4.748,6.425,6.425,0,0,1-1.968,4.73A6.416,6.416,0,0,1-559.7,309Zm-18.018-20.17a4.055,4.055,0,0,0-.415.364,3.628,3.628,0,0,0-1.1,2.658,3.593,3.593,0,0,0,1.1,2.658,3.633,3.633,0,0,0,2.658,1.1h15.745a6.93,6.93,0,0,1,1.806.232,3.4,3.4,0,0,0-1.032-2.111,3.361,3.361,0,0,0-2.517-1.041h-11.933a4.2,4.2,0,0,1-3.068-1.269A4.172,4.172,0,0,1-577.721,288.83Zm2.513-2.42,8.1,0a.879.879,0,0,0,.556-.141c.064-.045.161-.124.167-.19l0-.036c.006-.043-.043-.1-.088-.144a.853.853,0,0,0-.531-.2h-6.4A2.508,2.508,0,0,0-575.208,286.409Zm4.607,22.081-.682-.51a1.547,1.547,0,0,1-.219-.206l-.028-.03a4.526,4.526,0,0,1-1.369-3.308,4.482,4.482,0,0,1,1.374-3.314,4.779,4.779,0,0,1,1.488-1.007l.779-.342.682,1.558-.78.341a3.131,3.131,0,0,0-.972.658,2.805,2.805,0,0,0-.87,2.106,2.806,2.806,0,0,0,.87,2.106q.043.044.081.086l.011.011.653.49Z" transform="translate(580.934 -284)" fill="#25252e"/>
          </g>
        </g>
      </g>
      <g id="Group_13" data-name="Group 13" transform="translate(9.311 15.816)">
        <g id="Layer0_0_2_STROKES" data-name="Layer0 0 2 STROKES">
          <g id="Group_12" data-name="Group 12">
            <path id="Path_24" data-name="Path 24" d="M-568.5,310.251a.873.873,0,0,1-.226-.031,4.58,4.58,0,0,1-1.876-1.041.85.85,0,0,1-.059-1.2.852.852,0,0,1,1.2-.059,2.852,2.852,0,0,0,1.087.632.563.563,0,0,1,.057,0h1.729a.851.851,0,0,1,.851.85.852.852,0,0,1-.851.851h-1.729a.764.764,0,0,1-.092-.006A.768.768,0,0,1-568.5,310.251Zm-.453-7.242a.852.852,0,0,1-.778-.506.85.85,0,0,1,.432-1.122,4.045,4.045,0,0,1,1.042-.291.811.811,0,0,1,.156-.009h1.8a.85.85,0,0,1,.851.85.85.85,0,0,1-.851.85h-1.761a2.308,2.308,0,0,0-.544.154A.846.846,0,0,1-568.949,303.01Z" transform="translate(570.878 -301.081)" fill="#25252e"/>
          </g>
        </g>
      </g>
    </g>
  </g>
</svg>
