<svg xmlns="http://www.w3.org/2000/svg" width="101.994" height="34.622" viewBox="0 0 101.994 34.622">
  <g id="FB_logo_06" transform="translate(-1267.114 -656.974)">
    <path id="Path_69" data-name="Path 69" d="M1276.66,677.151a4.468,4.468,0,0,0-1.267-.826,4.164,4.164,0,0,0-1.67-.312,2.829,2.829,0,0,0-1.854.587,1.938,1.938,0,0,0-.716,1.579,2.077,2.077,0,0,0,.661,1.579,10.708,10.708,0,0,0,2.019,1.4l3.048,1.762a7.509,7.509,0,0,1,2.441,2,4.145,4.145,0,0,1,.716,2.588,4.267,4.267,0,0,1-1.707,3.561,12.763,12.763,0,0,1-5.048,2.057,10.471,10.471,0,0,1-1.6-.128,13.216,13.216,0,0,1-1.6-.349,14.3,14.3,0,0,1-1.45-.5,11.784,11.784,0,0,1-1.156-.532l-.367-4.883h1.4l1.616,3.524a8.287,8.287,0,0,0,1.542,1.047,3.817,3.817,0,0,0,1.8.422,2.865,2.865,0,0,0,2.112-.716,2.33,2.33,0,0,0,.715-1.707,2.963,2.963,0,0,0-.147-.973,2.131,2.131,0,0,0-.477-.771,5.137,5.137,0,0,0-.844-.7q-.515-.348-1.212-.789l-3.047-1.763a9.087,9.087,0,0,1-2.148-1.707,3.757,3.757,0,0,1-.936-2.662,3.894,3.894,0,0,1,1.579-3.194,13.36,13.36,0,0,1,4.92-2.094,10.158,10.158,0,0,1,3.194.441,14.582,14.582,0,0,1,2.277.954v4.516H1278.2Z" transform="translate(0 -9.42)" fill="#25252e"/>
    <path id="Path_70" data-name="Path 70" d="M1306.542,693.122a7.039,7.039,0,0,1-1.67-.2,4.6,4.6,0,0,1-1.524-.679v7.49l3.488.321-.073.963h-9.8l-.073-.963,2.24-.321V676.967l-2.277.294-.11-.962,5.25-1.259h1.138l.183,3.44,4.993-3.826a6.47,6.47,0,0,1,2.79.606,6.665,6.665,0,0,1,2.222,1.689,7.706,7.706,0,0,1,1.45,2.607,10.464,10.464,0,0,1,.514,3.359,10.245,10.245,0,0,1-2.148,6.793A10.9,10.9,0,0,1,1306.542,693.122Zm4.222-8.628a10.574,10.574,0,0,0-.991-4.993,3.014,3.014,0,0,0-2.717-1.835,2.753,2.753,0,0,0-1.4.38,14.588,14.588,0,0,0-1.505,1.022l-.808.641v10.408a3.62,3.62,0,0,0,1.321,1.126,3.905,3.905,0,0,0,1.8.411,3.528,3.528,0,0,0,3.139-1.909A10.119,10.119,0,0,0,1310.764,684.494Z" transform="translate(-15.784 -9.42)" fill="#25252e"/>
    <path id="Path_71" data-name="Path 71" d="M1347.313,674.654a14.393,14.393,0,0,1,3.066.275,4.415,4.415,0,0,1,1.982.933,3.556,3.556,0,0,1,1.065,1.738,9.839,9.839,0,0,1,.312,2.689v7.538a8,8,0,0,0,.147,1.664,7.531,7.531,0,0,0,.4,1.3h1.8l.147.966-5.691,1.109-.954-3.011-4.7,3.268a5.9,5.9,0,0,1-3.818-1.211,4.136,4.136,0,0,1-1.506-3.415,4.93,4.93,0,0,1,.386-1.965,5.022,5.022,0,0,1,1.339-1.744l8.114-2.607v-2.387a12.654,12.654,0,0,0-.073-1.432,2.789,2.789,0,0,0-.312-1.046,1.536,1.536,0,0,0-.716-.643,3.108,3.108,0,0,0-1.285-.22,4.93,4.93,0,0,0-1.157.129,11.989,11.989,0,0,0-1.157.349l-.66,3.818h-3.855V677.7Zm2.093,8.555-4.3,1.689a3.449,3.449,0,0,0-1.175,2.791,3.064,3.064,0,0,0,.643,2.11,1.982,1.982,0,0,0,1.524.717,2.7,2.7,0,0,0,1.285-.312q.587-.313.992-.57l1.027-.734Z" transform="translate(-38.602 -9.42)" fill="#25252e"/>
    <path id="Path_72" data-name="Path 72" d="M1385.446,676.526a2.78,2.78,0,0,0-1.432-.367,3.334,3.334,0,0,0-1.6.4,3.929,3.929,0,0,0-1.322,1.193,6.465,6.465,0,0,0-.918,2,10.265,10.265,0,0,0-.349,2.827,9.647,9.647,0,0,0,.422,2.919,7.342,7.342,0,0,0,1.193,2.331,5.423,5.423,0,0,0,1.872,1.542,5.345,5.345,0,0,0,2.424.551,5.817,5.817,0,0,0,2.185-.4,9.925,9.925,0,0,0,1.964-1.064l.44.918a21.541,21.541,0,0,1-2.863,2.111,21.177,21.177,0,0,1-3.341,1.634,9.277,9.277,0,0,1-3.36-.587,7.585,7.585,0,0,1-4.424-4.424,9.846,9.846,0,0,1-.624-3.617,9.444,9.444,0,0,1,.734-3.836,8.827,8.827,0,0,1,1.982-2.864,10.826,10.826,0,0,1,2.882-1.964,16.674,16.674,0,0,1,3.4-1.176,7.825,7.825,0,0,1,2.827.57,9.057,9.057,0,0,1,2.424,1.34v3.892h-3.378Z" transform="translate(-57.863 -9.42)" fill="#25252e"/>
    <path id="Path_73" data-name="Path 73" d="M1413.54,682.952a7.7,7.7,0,0,0,1.762,5.085,5.576,5.576,0,0,0,4.332,1.817,6.851,6.851,0,0,0,2.369-.422,11.154,11.154,0,0,0,2.147-1.047l.477.918a20,20,0,0,1-3.084,2.2,23.7,23.7,0,0,1-3.525,1.616,9.263,9.263,0,0,1-3.286-.587,7.964,7.964,0,0,1-4.608-4.388,10.163,10.163,0,0,1,1.6-10.133,12.046,12.046,0,0,1,6.223-3.36,7.825,7.825,0,0,1,2.9.5,5.546,5.546,0,0,1,2.074,1.4,5.721,5.721,0,0,1,1.23,2.166,9.079,9.079,0,0,1,.4,2.772v1.469Zm6.572-1.138v-.409a9.817,9.817,0,0,0-.606-3.8,2.417,2.417,0,0,0-2.478-1.413,2.8,2.8,0,0,0-2.534,1.441,8.224,8.224,0,0,0-.991,3.925v.252Z" transform="translate(-75.824 -9.42)" fill="#25252e"/>
    <path id="Path_74" data-name="Path 74" d="M1461.223,678.481a7.366,7.366,0,0,0,.147,1.664,6.356,6.356,0,0,0,.441,1.225h1.982l.147.966-5.727,1.109-1.028-3.261-4.772,3.518a6.767,6.767,0,0,1-5.287-2.405,8.1,8.1,0,0,1-1.487-2.68,10.44,10.44,0,0,1-.533-3.4,9.939,9.939,0,0,1,2.166-6.663,10.461,10.461,0,0,1,6.315-3.324,5.757,5.757,0,0,1,1.744.3,9.063,9.063,0,0,1,1.67.71v-7.288l-2.24.184-.147-1.009,5.287-1.157h1.322Zm-7.857,2.173a3.371,3.371,0,0,0,1.358-.271,8.126,8.126,0,0,0,1.469-.885l.807-.579V668.258a3.544,3.544,0,0,0-1.175-1.032,3.382,3.382,0,0,0-1.688-.413,3.7,3.7,0,0,0-3.36,1.909,9.957,9.957,0,0,0-1.156,5.177,10.081,10.081,0,0,0,1.028,4.9A3.064,3.064,0,0,0,1453.366,680.655Z" transform="translate(-94.832)" fill="#25252e"/>
  </g>
</svg>
