<svg xmlns="http://www.w3.org/2000/svg" width="138.113" height="30.866" viewBox="0 0 138.113 30.866">
  <g id="FB_logo_02" transform="translate(373.496 -282.731)">
    <g id="Group_1" data-name="Group 1">
      <path id="Path_8" data-name="Path 8" d="M-340.282,301.719l3.621-.99a3.034,3.034,0,0,0,1.037,2.065,3.647,3.647,0,0,0,2.531.836,3.155,3.155,0,0,0,1.934-.528,1.572,1.572,0,0,0,.7-1.3,1.451,1.451,0,0,0-.52-1.12,3.17,3.17,0,0,0-1.543-.656l-2.6-.584a6.368,6.368,0,0,1-3.49-1.906,4.806,4.806,0,0,1-1.221-3.278,5.059,5.059,0,0,1,1.872-3.933,6.7,6.7,0,0,1,4.579-1.641,8.576,8.576,0,0,1,2.52.349,6.321,6.321,0,0,1,1.844.861,5.686,5.686,0,0,1,1.22,1.193,5.843,5.843,0,0,1,.754,1.27,5.126,5.126,0,0,1,.329,1.167l-3.441.99a2.723,2.723,0,0,0-.246-.819,3.634,3.634,0,0,0-.543-.82,2.5,2.5,0,0,0-.982-.665,3.844,3.844,0,0,0-1.455-.256,2.762,2.762,0,0,0-1.811.591,1.77,1.77,0,0,0-.72,1.407,1.591,1.591,0,0,0,.486,1.164,2.434,2.434,0,0,0,1.3.642l2.649.545a6.8,6.8,0,0,1,3.661,1.856,4.546,4.546,0,0,1,1.273,3.232,5.6,5.6,0,0,1-.415,2.114,6.368,6.368,0,0,1-1.194,1.884,5.591,5.591,0,0,1-2.058,1.384,7.443,7.443,0,0,1-2.855.527,8.651,8.651,0,0,1-3.216-.566,5.984,5.984,0,0,1-2.242-1.457,7.384,7.384,0,0,1-1.248-1.79A5.332,5.332,0,0,1-340.282,301.719Z" fill="#25252e"/>
      <path id="Path_9" data-name="Path 9" d="M-326.534,292.907v-3.674h.9a2.583,2.583,0,0,0,2.022-.76,2.874,2.874,0,0,0,.685-2v-2.654h3.78v5.414h3.638v3.674h-3.638v8.176a2.279,2.279,0,0,0,.536,1.691,2.359,2.359,0,0,0,1.7.522,7.231,7.231,0,0,0,1.441-.142v3.432a6.777,6.777,0,0,1-2.572.384,5.25,5.25,0,0,1-3.858-1.392,5.154,5.154,0,0,1-1.409-3.842v-8.829Z" fill="#25252e"/>
      <path id="Path_10" data-name="Path 10" d="M-314.473,302.057a4.7,4.7,0,0,1,1.459-3.619,7,7,0,0,1,3.833-1.709l4.5-.686q1.3-.164,1.3-1.183a2.247,2.247,0,0,0-.828-1.8,3.78,3.78,0,0,0-2.485-.7,3.562,3.562,0,0,0-2.529.877,3.423,3.423,0,0,0-1.084,2.235l-3.8-.843a6.225,6.225,0,0,1,2.247-4.211,7.535,7.535,0,0,1,5.111-1.732,10.139,10.139,0,0,1,3.464.543,5.839,5.839,0,0,1,2.362,1.494,6.165,6.165,0,0,1,1.288,2.135,7.7,7.7,0,0,1,.418,2.579v8.509a14.647,14.647,0,0,0,.228,2.811h-3.948a8.11,8.11,0,0,1-.2-2.233,5.982,5.982,0,0,1-2.089,1.969,6.409,6.409,0,0,1-3.321.809,6,6,0,0,1-4.288-1.543A4.9,4.9,0,0,1-314.473,302.057Zm4.166-.3a2.15,2.15,0,0,0,.678,1.605,2.588,2.588,0,0,0,1.878.658,5.553,5.553,0,0,0,1.673-.238,4.205,4.205,0,0,0,1.384-.738,3.211,3.211,0,0,0,.969-1.406,6.075,6.075,0,0,0,.344-2.154v-.791l-4.569.7a3.266,3.266,0,0,0-1.71.763A2.059,2.059,0,0,0-310.307,301.754Z" fill="#25252e"/>
      <path id="Path_11" data-name="Path 11" d="M-296.4,306.759V289.233h4.026v2.184a4.837,4.837,0,0,1,2.165-1.985,6.76,6.76,0,0,1,3.007-.708,6.5,6.5,0,0,1,3.2.776,4.851,4.851,0,0,1,2.1,2.261,6.181,6.181,0,0,1,5.677-3.037,6.407,6.407,0,0,1,2.263.395,6,6,0,0,1,1.928,1.178,5.342,5.342,0,0,1,1.377,2.1,8.256,8.256,0,0,1,.508,2.989v11.373h-3.92v-10.74a3.922,3.922,0,0,0-.841-2.632,3.133,3.133,0,0,0-2.525-.99,3.356,3.356,0,0,0-2.621,1.122,4,4,0,0,0-1.009,2.782v10.458h-4.166v-10.74a3.96,3.96,0,0,0-.833-2.623,3.11,3.11,0,0,0-2.533-1,3.385,3.385,0,0,0-2.639,1.1,4.023,4.023,0,0,0-.991,2.808v10.458Z" fill="#25252e"/>
      <path id="Path_12" data-name="Path 12" d="M-267.149,313.6V289.233h4.061v2.348a5.144,5.144,0,0,1,2.158-1.977,7.2,7.2,0,0,1,3.4-.775,7.361,7.361,0,0,1,5.936,2.554,9.846,9.846,0,0,1,2.16,6.586,9.75,9.75,0,0,1-2.257,6.632,7.529,7.529,0,0,1-5.98,2.6,7.236,7.236,0,0,1-3.2-.678,5.323,5.323,0,0,1-2.114-1.725v8.8Zm4.131-15.628a5.954,5.954,0,0,0,1.316,4.025,4.262,4.262,0,0,0,3.386,1.53,4.29,4.29,0,0,0,3.4-1.521,5.949,5.949,0,0,0,1.316-4.034,5.825,5.825,0,0,0-1.307-3.962,4.308,4.308,0,0,0-3.413-1.5,4.281,4.281,0,0,0-3.386,1.513A5.8,5.8,0,0,0-263.018,297.969Z" fill="#25252e"/>
      <path id="Path_13" data-name="Path 13" d="M-249.129,301.719l3.621-.99a3.034,3.034,0,0,0,1.037,2.065,3.648,3.648,0,0,0,2.532.836,3.154,3.154,0,0,0,1.933-.528,1.572,1.572,0,0,0,.7-1.3,1.451,1.451,0,0,0-.52-1.12,3.166,3.166,0,0,0-1.542-.656l-2.6-.584a6.361,6.361,0,0,1-3.489-1.906,4.8,4.8,0,0,1-1.222-3.278,5.059,5.059,0,0,1,1.872-3.933,6.7,6.7,0,0,1,4.579-1.641,8.571,8.571,0,0,1,2.52.349,6.309,6.309,0,0,1,1.844.861,5.714,5.714,0,0,1,1.221,1.193,5.876,5.876,0,0,1,.753,1.27,5.126,5.126,0,0,1,.329,1.167l-3.441.99a2.72,2.72,0,0,0-.245-.819,3.675,3.675,0,0,0-.544-.82,2.5,2.5,0,0,0-.982-.665,3.84,3.84,0,0,0-1.455-.256,2.76,2.76,0,0,0-1.81.591,1.769,1.769,0,0,0-.721,1.407,1.591,1.591,0,0,0,.486,1.164,2.438,2.438,0,0,0,1.3.642l2.648.545a6.8,6.8,0,0,1,3.662,1.856,4.549,4.549,0,0,1,1.272,3.232,5.576,5.576,0,0,1-.415,2.114,6.347,6.347,0,0,1-1.194,1.884,5.59,5.59,0,0,1-2.058,1.384,7.441,7.441,0,0,1-2.854.527,8.652,8.652,0,0,1-3.217-.566,5.988,5.988,0,0,1-2.241-1.457,7.384,7.384,0,0,1-1.248-1.79A5.358,5.358,0,0,1-249.129,301.719Z" fill="#25252e"/>
    </g>
    <g id="document">
      <g id="Group_7" data-name="Group 7">
        <g id="Group_4" data-name="Group 4">
          <g id="Group_2" data-name="Group 2">
            <path id="Path_14" data-name="Path 14" d="M-371.494,287.953a.73.73,0,0,0,.039-.148,3.588,3.588,0,0,1,1.295-2.289,3.563,3.563,0,0,1,1.731-.743.652.652,0,0,0,.123-.031,3.561,3.561,0,0,1,.374-.019,3.531,3.531,0,0,1,3.523,3.082.538.538,0,0,0,.544.492h.129a.536.536,0,0,0,.544-.492,3.51,3.51,0,0,1,3.5-3.082,3.531,3.531,0,0,1,3.523,3.082.538.538,0,0,0,.544.492h.1a.536.536,0,0,0,.544-.492,3.53,3.53,0,0,1,3.5-3.082A3.546,3.546,0,0,1-349,285.735a3.55,3.55,0,0,1,1.013,2.486,3.528,3.528,0,0,1-3.083,3.5.536.536,0,0,0-.492.544v.1a.538.538,0,0,0,.492.544,3.53,3.53,0,0,1,3.083,3.522,3.51,3.51,0,0,1-3.083,3.5.536.536,0,0,0-.492.544v.13a.539.539,0,0,0,.492.544,3.53,3.53,0,0,1,3.083,3.522c0,.116-.006.23-.017.343a.731.731,0,0,0-.04.148,3.582,3.582,0,0,1-1.294,2.289,3.566,3.566,0,0,1-1.732.743.756.756,0,0,0-.122.03,3.564,3.564,0,0,1-.375.02,3.53,3.53,0,0,1-3.522-3.082.538.538,0,0,0-.544-.492h-.13a.536.536,0,0,0-.544.492,3.509,3.509,0,0,1-3.5,3.082,3.531,3.531,0,0,1-3.523-3.082.538.538,0,0,0-.544-.492h-.1a.536.536,0,0,0-.544.492,3.528,3.528,0,0,1-3.5,3.082,3.55,3.55,0,0,1-2.487-1.012h0a3.55,3.55,0,0,1-1.012-2.486,3.528,3.528,0,0,1,3.082-3.5.536.536,0,0,0,.493-.544v-.1a.539.539,0,0,0-.493-.544,3.53,3.53,0,0,1-3.082-3.522,3.509,3.509,0,0,1,3.082-3.5.536.536,0,0,0,.493-.544v-.13a.539.539,0,0,0-.493-.544,3.53,3.53,0,0,1-3.082-3.522c0-.116.006-.23.017-.343Zm3.068-4.323a.826.826,0,0,0-.132-.023,4.726,4.726,0,0,0-3.006,1.689,4.7,4.7,0,0,0-1.056,2.38.717.717,0,0,0,.018.113,4.555,4.555,0,0,0-.023.455,4.744,4.744,0,0,0,2.461,4.118,4.744,4.744,0,0,0-2.461,4.119,4.744,4.744,0,0,0,2.461,4.118,4.681,4.681,0,0,0-2.461,4.119c0,.131.006.26.016.389a.579.579,0,0,0-.014.182,4.709,4.709,0,0,0,1.348,2.717,4.709,4.709,0,0,0,2.717,1.348.584.584,0,0,0,.183-.014c.128.011.258.016.389.016a4.679,4.679,0,0,0,4.118-2.461,4.742,4.742,0,0,0,4.118,2.461,4.742,4.742,0,0,0,4.119-2.461,4.742,4.742,0,0,0,4.118,2.461c.149,0,.3-.007.442-.021a.736.736,0,0,0,.133.022,4.715,4.715,0,0,0,3-1.688,4.7,4.7,0,0,0,1.057-2.38.718.718,0,0,0-.018-.113c.015-.15.022-.3.022-.455a4.743,4.743,0,0,0-2.46-4.118,4.743,4.743,0,0,0,2.46-4.119,4.743,4.743,0,0,0-2.46-4.118,4.681,4.681,0,0,0,2.46-4.119c0-.131-.005-.261-.015-.389a.644.644,0,0,0,.014-.182,4.7,4.7,0,0,0-1.349-2.717,4.7,4.7,0,0,0-2.716-1.348.582.582,0,0,0-.183.014c-.128-.011-.258-.016-.389-.016a4.679,4.679,0,0,0-4.118,2.461,4.742,4.742,0,0,0-4.119-2.461,4.742,4.742,0,0,0-4.118,2.461,4.742,4.742,0,0,0-4.119-2.461c-.149,0-.3.007-.442.021Z" fill="#25252e"/>
          </g>
          <g id="Group_3" data-name="Group 3">
            <path id="Path_15" data-name="Path 15" d="M-350.913,310.234l-.092-.007c-.038,0-.077-.008-.115-.013-.13.009-.262.014-.393.014a5.5,5.5,0,0,1-2.873-.815,5.7,5.7,0,0,1-1.241-1.026,5.62,5.62,0,0,1-4.123,1.841,5.5,5.5,0,0,1-2.873-.815,5.723,5.723,0,0,1-1.238-1.023,5.6,5.6,0,0,1-1.232,1.023,5.542,5.542,0,0,1-2.893.815c-.116,0-.233,0-.349-.011a1.406,1.406,0,0,1-.29.006l-.025,0-.025,0a5.6,5.6,0,0,1-1.763-.543,5.569,5.569,0,0,1-1.453-1.053,5.542,5.542,0,0,1-1.052-1.453,5.568,5.568,0,0,1-.544-1.763l0-.025,0-.025a1.559,1.559,0,0,1,.006-.29c-.007-.116-.01-.233-.01-.348a5.539,5.539,0,0,1,.814-2.893,5.557,5.557,0,0,1,1.024-1.233,5.677,5.677,0,0,1-1.024-1.238,5.5,5.5,0,0,1-.814-2.873,5.621,5.621,0,0,1,1.84-4.123,5.7,5.7,0,0,1-1.026-1.241,5.5,5.5,0,0,1-.814-2.873c0-.139.005-.279.016-.418q-.006-.042-.009-.084l-.007-.092.012-.092a5.563,5.563,0,0,1,1.249-2.818,5.575,5.575,0,0,1,3.559-2l.092-.013.093.007c.038,0,.076.008.114.013.131-.009.263-.014.393-.014a5.508,5.508,0,0,1,2.874.815,5.7,5.7,0,0,1,1.24,1.026,5.62,5.62,0,0,1,4.123-1.841,5.508,5.508,0,0,1,2.874.815,5.724,5.724,0,0,1,1.238,1.023,5.6,5.6,0,0,1,1.232-1.023,5.54,5.54,0,0,1,2.893-.815c.116,0,.233,0,.348.011a1.414,1.414,0,0,1,.291-.006l.024,0,.025,0a5.591,5.591,0,0,1,1.763.543,5.557,5.557,0,0,1,1.454,1.053,5.509,5.509,0,0,1,1.052,1.453,5.591,5.591,0,0,1,.543,1.763l0,.025,0,.025a1.48,1.48,0,0,1-.007.29c.007.116.011.232.011.348a5.54,5.54,0,0,1-.815,2.893,5.551,5.551,0,0,1-1.023,1.233,5.648,5.648,0,0,1,1.023,1.238,5.5,5.5,0,0,1,.815,2.873,5.618,5.618,0,0,1-1.841,4.123,5.69,5.69,0,0,1,1.026,1.24,5.508,5.508,0,0,1,.815,2.874c0,.139-.005.279-.016.417,0,.028.007.057.009.085l.007.092-.013.092a5.561,5.561,0,0,1-1.248,2.818,5.575,5.575,0,0,1-3.56,2Zm-3.308-5.176a2.653,2.653,0,0,0,2.656,2.312c.071,0,.141,0,.211-.008.047-.012.094-.022.142-.03l.026,0a2.684,2.684,0,0,0,1.3-.559,2.7,2.7,0,0,0,.977-1.727l0-.025a1.671,1.671,0,0,1,.039-.176c0-.057.006-.115.006-.172a2.655,2.655,0,0,0-2.313-2.657,1.408,1.408,0,0,1-1.262-1.409v-.13a1.4,1.4,0,0,1,1.221-1.4l.025,0,.026,0a2.642,2.642,0,0,0,2.3-2.63,2.655,2.655,0,0,0-2.313-2.657,1.408,1.408,0,0,1-1.262-1.409v-.1a1.4,1.4,0,0,1,1.221-1.4l.025,0,.026,0a2.674,2.674,0,0,0,2.3-2.63,2.673,2.673,0,0,0-.757-1.87,2.671,2.671,0,0,0-1.87-.757,2.642,2.642,0,0,0-2.63,2.3l0,.026,0,.025a1.4,1.4,0,0,1-1.4,1.221h-.1a1.409,1.409,0,0,1-1.41-1.262,2.655,2.655,0,0,0-2.657-2.313,2.642,2.642,0,0,0-2.63,2.3l0,.026,0,.025a1.4,1.4,0,0,1-1.4,1.221h-.129a1.409,1.409,0,0,1-1.41-1.262,2.655,2.655,0,0,0-2.657-2.313c-.07,0-.141,0-.211.009-.046.012-.094.022-.142.03l-.026,0a2.676,2.676,0,0,0-1.3.559,2.692,2.692,0,0,0-.977,1.727l0,.025a1.671,1.671,0,0,1-.039.176c0,.057-.005.115-.005.172a2.655,2.655,0,0,0,2.312,2.657,1.408,1.408,0,0,1,1.262,1.409v.13a1.4,1.4,0,0,1-1.22,1.4l-.026,0-.026,0a2.641,2.641,0,0,0-2.3,2.63,2.653,2.653,0,0,0,2.312,2.656,1.41,1.41,0,0,1,1.262,1.41v.1a1.4,1.4,0,0,1-1.22,1.4l-.026,0-.026,0a2.674,2.674,0,0,0-2.3,2.63,2.669,2.669,0,0,0,.757,1.869,2.667,2.667,0,0,0,1.87.757,2.675,2.675,0,0,0,2.63-2.3l0-.026.005-.026a1.4,1.4,0,0,1,1.4-1.22h.1a1.409,1.409,0,0,1,1.41,1.262,2.654,2.654,0,0,0,2.657,2.312,2.641,2.641,0,0,0,2.63-2.3l0-.026.005-.025a1.4,1.4,0,0,1,1.4-1.221h.13A1.409,1.409,0,0,1-354.221,305.058Zm-14.286-12.371Z" fill="#25252e"/>
          </g>
        </g>
        <g id="Group_6" data-name="Group 6">
          <g id="Group_5" data-name="Group 5">
            <path id="Path_16" data-name="Path 16" d="M-359.736,299.894a4.776,4.776,0,0,1-3.4-1.408,4.777,4.777,0,0,1-1.408-3.4,1.068,1.068,0,0,1,1.067-1.068,1.068,1.068,0,0,1,1.067,1.068,2.677,2.677,0,0,0,2.674,2.673,2.677,2.677,0,0,0,2.674-2.673,1.067,1.067,0,0,1,1.067-1.068,1.068,1.068,0,0,1,1.067,1.068,4.778,4.778,0,0,1-1.408,3.4A4.777,4.777,0,0,1-359.736,299.894Z" fill="#25252e"/>
          </g>
        </g>
      </g>
    </g>
  </g>
</svg>
