<svg width="128" height="29" viewBox="0 0 128 29" fill="none" xmlns="http://www.w3.org/2000/svg">
<path d="M51.562 22V6.6H61.44V8.624H53.85V13.222H59.988V15.246H53.85V22H51.562ZM69.1747 12.76H67.5687C65.7794 12.76 64.8847 14.168 64.8847 16.984V22H62.7507V10.912H64.8847V13.046C65.1341 12.298 65.4934 11.7553 65.9627 11.418C66.4321 11.0807 67.0554 10.912 67.8327 10.912H69.1747V12.76ZM79.6376 20.57C78.5669 21.6407 77.2029 22.176 75.5456 22.176C73.8883 22.176 72.5169 21.6407 71.4316 20.57C70.3609 19.4847 69.8256 18.1133 69.8256 16.456C69.8256 14.7987 70.3609 13.4347 71.4316 12.364C72.5169 11.2787 73.8883 10.736 75.5456 10.736C77.2029 10.736 78.5669 11.2787 79.6376 12.364C80.7083 13.4347 81.2436 14.7987 81.2436 16.456C81.2436 18.1133 80.7083 19.4847 79.6376 20.57ZM75.5456 20.306C76.5869 20.306 77.4303 19.9467 78.0756 19.228C78.7356 18.5093 79.0656 17.5853 79.0656 16.456C79.0656 15.3267 78.7356 14.4027 78.0756 13.684C77.4303 12.9653 76.5869 12.606 75.5456 12.606C74.4896 12.606 73.6316 12.9653 72.9716 13.684C72.3263 14.4027 72.0036 15.3267 72.0036 16.456C72.0036 17.5853 72.3263 18.5093 72.9716 19.228C73.6316 19.9467 74.4896 20.306 75.5456 20.306ZM83.3328 22V10.912H85.4668V12.87C85.7601 12.1807 86.2148 11.6527 86.8308 11.286C87.4614 10.9193 88.1948 10.736 89.0308 10.736C90.2774 10.736 91.2748 11.1467 92.0228 11.968C92.7854 12.7893 93.1668 13.86 93.1668 15.18V22H91.0328V15.598C91.0328 14.718 90.7908 14.0067 90.3068 13.464C89.8374 12.9213 89.2141 12.65 88.4367 12.65C87.5714 12.65 86.8601 12.9653 86.3028 13.596C85.7454 14.2267 85.4668 15.026 85.4668 15.994V22H83.3328ZM96.7904 7.436H98.9244V10.912H102.202V12.76H98.9244V18.304C98.9244 18.8907 99.0711 19.3453 99.3644 19.668C99.6724 19.9907 100.098 20.152 100.64 20.152H102.202V22H100.464C99.3351 22 98.4404 21.6773 97.7804 21.032C97.1204 20.3867 96.7904 19.4993 96.7904 18.37V12.76H94.5244V10.912H96.7904V7.436ZM103.89 6.27H106.266V8.954H103.89V6.27ZM104.022 22V10.912H106.156V22H104.022ZM116.776 18.392H118.91C118.705 19.536 118.14 20.4527 117.216 21.142C116.292 21.8313 115.148 22.176 113.784 22.176C112.127 22.176 110.785 21.6113 109.758 20.482C108.732 19.3527 108.218 17.9887 108.218 16.39C108.218 14.7767 108.695 13.4347 109.648 12.364C110.602 11.2787 111.907 10.736 113.564 10.736C115.207 10.736 116.49 11.242 117.414 12.254C118.353 13.266 118.822 14.5127 118.822 15.994C118.822 16.2873 118.808 16.566 118.778 16.83H110.308C110.396 17.886 110.756 18.7367 111.386 19.382C112.017 20.0273 112.816 20.35 113.784 20.35C115.456 20.35 116.454 19.6973 116.776 18.392ZM113.564 12.452C111.775 12.452 110.712 13.3907 110.374 15.268H116.666C116.593 14.4173 116.285 13.7353 115.742 13.222C115.2 12.7087 114.474 12.452 113.564 12.452ZM127.419 12.76H125.813C124.024 12.76 123.129 14.168 123.129 16.984V22H120.995V10.912H123.129V13.046C123.378 12.298 123.738 11.7553 124.207 11.418C124.676 11.0807 125.3 10.912 126.077 10.912H127.419V12.76Z" fill="white"/>
<path fill-rule="evenodd" clip-rule="evenodd" d="M23 1.875C31.9053 1.875 39.125 9.09468 39.125 18C39.125 18.6213 38.6213 19.125 38 19.125C37.3787 19.125 36.875 18.6213 36.875 18C36.875 10.3373 30.6627 4.125 23 4.125L11 4.125C6.65132 4.125 3.125 7.65132 3.125 12C3.125 16.3487 6.65132 19.875 11 19.875L23 19.875C24.0347 19.875 24.875 19.0347 24.875 18C24.875 16.9653 24.0347 16.125 23 16.125L11 16.125C8.72268 16.125 6.875 14.2773 6.875 12C6.875 9.72268 8.72268 7.875 11 7.875L23 7.875C28.5913 7.875 33.125 12.4087 33.125 18C33.125 23.5913 28.5913 28.125 23 28.125L10 28.125C9.37868 28.125 8.875 27.6213 8.875 27C8.875 26.3787 9.37868 25.875 10 25.875L23 25.875C27.3487 25.875 30.875 22.3487 30.875 18C30.875 13.6513 27.3487 10.125 23 10.125L11 10.125C9.96532 10.125 9.125 10.9653 9.125 12C9.125 13.0347 9.96532 13.875 11 13.875L23 13.875C25.2773 13.875 27.125 15.7227 27.125 18C27.125 20.2773 25.2773 22.125 23 22.125L11 22.125C5.40868 22.125 0.874999 17.5913 0.875 12C0.875 6.40868 5.40868 1.875 11 1.875L23 1.875Z" fill="#01BC9A"/>
</svg>
