<svg xmlns="http://www.w3.org/2000/svg" width="126.279" height="114.902" viewBox="0 0 126.279 114.902">
  <g id="Dot_Small_Grey" data-name="Dot Small Grey" transform="translate(-0.495 -0.883)">
    <path id="Path_4" data-name="Path 4" d="M126.774,1.753a.871.871,0,1,1-.871-.87A.871.871,0,0,1,126.774,1.753Z" fill="#8a8a8f"/>
    <path id="Path_5" data-name="Path 5" d="M125.9,11.328a.87.87,0,1,0-.871-.87A.871.871,0,0,0,125.9,11.328Z" fill="#8a8a8f"/>
    <path id="Path_6" data-name="Path 6" d="M126.774,19.163a.871.871,0,1,1-.871-.87A.871.871,0,0,1,126.774,19.163Z" fill="#8a8a8f"/>
    <path id="Path_7" data-name="Path 7" d="M125.9,28.738a.87.87,0,1,0-.871-.87A.871.871,0,0,0,125.9,28.738Z" fill="#8a8a8f"/>
    <path id="Path_8" data-name="Path 8" d="M126.774,36.572a.871.871,0,1,1-.871-.871A.871.871,0,0,1,126.774,36.572Z" fill="#8a8a8f"/>
    <path id="Path_9" data-name="Path 9" d="M125.9,46.147a.87.87,0,1,0-.871-.87A.871.871,0,0,0,125.9,46.147Z" fill="#8a8a8f"/>
    <path id="Path_10" data-name="Path 10" d="M126.774,53.982a.871.871,0,1,1-.871-.871A.871.871,0,0,1,126.774,53.982Z" fill="#8a8a8f"/>
    <path id="Path_11" data-name="Path 11" d="M125.9,63.557a.871.871,0,1,0-.871-.87A.871.871,0,0,0,125.9,63.557Z" fill="#8a8a8f"/>
    <path id="Path_12" data-name="Path 12" d="M126.774,71.391a.871.871,0,1,1-.871-.87A.871.871,0,0,1,126.774,71.391Z" fill="#8a8a8f"/>
    <path id="Path_13" data-name="Path 13" d="M125.9,80.966a.87.87,0,1,0-.871-.87A.871.871,0,0,0,125.9,80.966Z" fill="#8a8a8f"/>
    <path id="Path_14" data-name="Path 14" d="M126.774,88.8a.871.871,0,1,1-.871-.87A.871.871,0,0,1,126.774,88.8Z" fill="#8a8a8f"/>
    <path id="Path_15" data-name="Path 15" d="M125.9,98.376a.87.87,0,1,0-.871-.87A.871.871,0,0,0,125.9,98.376Z" fill="#8a8a8f"/>
    <path id="Path_16" data-name="Path 16" d="M125.9,107.08a.87.87,0,1,0-.871-.87A.87.87,0,0,0,125.9,107.08Z" fill="#8a8a8f"/>
    <path id="Path_17" data-name="Path 17" d="M116.323,107.08a.87.87,0,1,0-.871-.87A.87.87,0,0,0,116.323,107.08Z" fill="#8a8a8f"/>
    <path id="Path_18" data-name="Path 18" d="M117.194,97.505a.871.871,0,1,1-.871-.87A.871.871,0,0,1,117.194,97.505Z" fill="#8a8a8f"/>
    <path id="Path_19" data-name="Path 19" d="M116.323,89.671a.87.87,0,1,0-.871-.87A.871.871,0,0,0,116.323,89.671Z" fill="#8a8a8f"/>
    <path id="Path_20" data-name="Path 20" d="M117.194,80.1a.871.871,0,1,1-.871-.87A.871.871,0,0,1,117.194,80.1Z" fill="#8a8a8f"/>
    <path id="Path_21" data-name="Path 21" d="M116.323,72.262a.87.87,0,1,0-.871-.87A.871.871,0,0,0,116.323,72.262Z" fill="#8a8a8f"/>
    <path id="Path_22" data-name="Path 22" d="M117.194,62.686a.871.871,0,1,1-.871-.871A.871.871,0,0,1,117.194,62.686Z" fill="#8a8a8f"/>
    <path id="Path_23" data-name="Path 23" d="M116.323,54.852a.87.87,0,1,0-.871-.87A.871.871,0,0,0,116.323,54.852Z" fill="#8a8a8f"/>
    <path id="Path_24" data-name="Path 24" d="M117.194,45.277a.871.871,0,1,1-.871-.87A.871.871,0,0,1,117.194,45.277Z" fill="#8a8a8f"/>
    <path id="Path_25" data-name="Path 25" d="M116.323,37.443a.871.871,0,1,0-.871-.87A.871.871,0,0,0,116.323,37.443Z" fill="#8a8a8f"/>
    <path id="Path_26" data-name="Path 26" d="M117.194,27.868a.871.871,0,1,1-.871-.871A.871.871,0,0,1,117.194,27.868Z" fill="#8a8a8f"/>
    <path id="Path_27" data-name="Path 27" d="M116.323,20.033a.87.87,0,1,0-.871-.87A.871.871,0,0,0,116.323,20.033Z" fill="#8a8a8f"/>
    <path id="Path_28" data-name="Path 28" d="M117.194,10.458a.871.871,0,1,1-.871-.87A.871.871,0,0,1,117.194,10.458Z" fill="#8a8a8f"/>
    <path id="Path_29" data-name="Path 29" d="M116.323,2.624a.87.87,0,1,0-.871-.87A.871.871,0,0,0,116.323,2.624Z" fill="#8a8a8f"/>
    <path id="Path_30" data-name="Path 30" d="M107.614,106.21a.87.87,0,1,1-.87-.87A.869.869,0,0,1,107.614,106.21Z" fill="#8a8a8f"/>
    <path id="Path_31" data-name="Path 31" d="M106.744,98.376a.87.87,0,1,0-.871-.87A.87.87,0,0,0,106.744,98.376Z" fill="#8a8a8f"/>
    <path id="Path_32" data-name="Path 32" d="M107.614,88.8a.87.87,0,1,1-.87-.87A.87.87,0,0,1,107.614,88.8Z" fill="#8a8a8f"/>
    <path id="Path_33" data-name="Path 33" d="M106.744,80.966a.87.87,0,1,0-.871-.87A.87.87,0,0,0,106.744,80.966Z" fill="#8a8a8f"/>
    <path id="Path_34" data-name="Path 34" d="M107.614,71.391a.87.87,0,1,1-.87-.87A.87.87,0,0,1,107.614,71.391Z" fill="#8a8a8f"/>
    <path id="Path_35" data-name="Path 35" d="M106.744,63.557a.871.871,0,1,0-.871-.87A.87.87,0,0,0,106.744,63.557Z" fill="#8a8a8f"/>
    <path id="Path_36" data-name="Path 36" d="M107.614,53.982a.87.87,0,1,1-.87-.871A.87.87,0,0,1,107.614,53.982Z" fill="#8a8a8f"/>
    <path id="Path_37" data-name="Path 37" d="M106.744,46.147a.87.87,0,1,0-.871-.87A.87.87,0,0,0,106.744,46.147Z" fill="#8a8a8f"/>
    <path id="Path_38" data-name="Path 38" d="M107.614,36.572a.87.87,0,1,1-.87-.871A.87.87,0,0,1,107.614,36.572Z" fill="#8a8a8f"/>
    <path id="Path_39" data-name="Path 39" d="M106.744,28.738a.87.87,0,1,0-.871-.87A.87.87,0,0,0,106.744,28.738Z" fill="#8a8a8f"/>
    <path id="Path_40" data-name="Path 40" d="M107.614,19.163a.87.87,0,1,1-.87-.87A.87.87,0,0,1,107.614,19.163Z" fill="#8a8a8f"/>
    <path id="Path_41" data-name="Path 41" d="M106.744,11.328a.87.87,0,1,0-.871-.87A.87.87,0,0,0,106.744,11.328Z" fill="#8a8a8f"/>
    <path id="Path_42" data-name="Path 42" d="M107.614,1.753a.87.87,0,1,1-.87-.87A.87.87,0,0,1,107.614,1.753Z" fill="#8a8a8f"/>
    <path id="Path_43" data-name="Path 43" d="M97.164,107.08a.87.87,0,1,0-.871-.87A.87.87,0,0,0,97.164,107.08Z" fill="#8a8a8f"/>
    <path id="Path_44" data-name="Path 44" d="M98.035,97.505a.871.871,0,1,1-.871-.87A.871.871,0,0,1,98.035,97.505Z" fill="#8a8a8f"/>
    <path id="Path_45" data-name="Path 45" d="M97.164,89.671a.87.87,0,1,0-.871-.87A.871.871,0,0,0,97.164,89.671Z" fill="#8a8a8f"/>
    <path id="Path_46" data-name="Path 46" d="M98.035,80.1a.871.871,0,1,1-.871-.87A.871.871,0,0,1,98.035,80.1Z" fill="#8a8a8f"/>
    <path id="Path_47" data-name="Path 47" d="M97.164,72.262a.87.87,0,1,0-.871-.87A.871.871,0,0,0,97.164,72.262Z" fill="#8a8a8f"/>
    <path id="Path_48" data-name="Path 48" d="M98.035,62.686a.871.871,0,1,1-.871-.871A.871.871,0,0,1,98.035,62.686Z" fill="#8a8a8f"/>
    <path id="Path_49" data-name="Path 49" d="M97.164,54.852a.87.87,0,1,0-.871-.87A.871.871,0,0,0,97.164,54.852Z" fill="#8a8a8f"/>
    <path id="Path_50" data-name="Path 50" d="M98.035,45.277a.871.871,0,1,1-.871-.87A.871.871,0,0,1,98.035,45.277Z" fill="#8a8a8f"/>
    <path id="Path_51" data-name="Path 51" d="M97.164,37.443a.871.871,0,1,0-.871-.87A.871.871,0,0,0,97.164,37.443Z" fill="#8a8a8f"/>
    <path id="Path_52" data-name="Path 52" d="M98.035,27.868A.871.871,0,1,1,97.164,27,.871.871,0,0,1,98.035,27.868Z" fill="#8a8a8f"/>
    <path id="Path_53" data-name="Path 53" d="M97.164,20.033a.87.87,0,1,0-.871-.87A.871.871,0,0,0,97.164,20.033Z" fill="#8a8a8f"/>
    <path id="Path_54" data-name="Path 54" d="M98.035,10.458a.871.871,0,1,1-.871-.87A.871.871,0,0,1,98.035,10.458Z" fill="#8a8a8f"/>
    <path id="Path_55" data-name="Path 55" d="M97.164,2.624a.87.87,0,1,0-.871-.87A.871.871,0,0,0,97.164,2.624Z" fill="#8a8a8f"/>
    <path id="Path_56" data-name="Path 56" d="M88.455,106.21a.871.871,0,1,1-.871-.87A.87.87,0,0,1,88.455,106.21Z" fill="#8a8a8f"/>
    <path id="Path_57" data-name="Path 57" d="M87.584,98.376a.87.87,0,1,0-.871-.87A.871.871,0,0,0,87.584,98.376Z" fill="#8a8a8f"/>
    <path id="Path_58" data-name="Path 58" d="M88.455,88.8a.871.871,0,1,1-.871-.87A.871.871,0,0,1,88.455,88.8Z" fill="#8a8a8f"/>
    <path id="Path_59" data-name="Path 59" d="M87.584,80.966a.87.87,0,1,0-.871-.87A.871.871,0,0,0,87.584,80.966Z" fill="#8a8a8f"/>
    <path id="Path_60" data-name="Path 60" d="M88.455,71.391a.871.871,0,1,1-.871-.87A.871.871,0,0,1,88.455,71.391Z" fill="#8a8a8f"/>
    <path id="Path_61" data-name="Path 61" d="M87.584,63.557a.871.871,0,1,0-.871-.87A.871.871,0,0,0,87.584,63.557Z" fill="#8a8a8f"/>
    <path id="Path_62" data-name="Path 62" d="M88.455,53.982a.871.871,0,1,1-.871-.871A.871.871,0,0,1,88.455,53.982Z" fill="#8a8a8f"/>
    <path id="Path_63" data-name="Path 63" d="M87.584,46.147a.87.87,0,1,0-.871-.87A.871.871,0,0,0,87.584,46.147Z" fill="#8a8a8f"/>
    <path id="Path_64" data-name="Path 64" d="M88.455,36.572a.871.871,0,1,1-.871-.871A.871.871,0,0,1,88.455,36.572Z" fill="#8a8a8f"/>
    <path id="Path_65" data-name="Path 65" d="M87.584,28.738a.87.87,0,1,0-.871-.87A.871.871,0,0,0,87.584,28.738Z" fill="#8a8a8f"/>
    <path id="Path_66" data-name="Path 66" d="M88.455,19.163a.871.871,0,1,1-.871-.87A.871.871,0,0,1,88.455,19.163Z" fill="#8a8a8f"/>
    <path id="Path_67" data-name="Path 67" d="M87.584,11.328a.87.87,0,1,0-.871-.87A.871.871,0,0,0,87.584,11.328Z" fill="#8a8a8f"/>
    <path id="Path_68" data-name="Path 68" d="M88.455,1.753a.871.871,0,1,1-.871-.87A.871.871,0,0,1,88.455,1.753Z" fill="#8a8a8f"/>
    <path id="Path_69" data-name="Path 69" d="M78,107.08a.87.87,0,1,0-.871-.87A.87.87,0,0,0,78,107.08Z" fill="#8a8a8f"/>
    <path id="Path_70" data-name="Path 70" d="M78.875,97.505a.871.871,0,1,1-.871-.87A.871.871,0,0,1,78.875,97.505Z" fill="#8a8a8f"/>
    <path id="Path_71" data-name="Path 71" d="M78,89.671a.87.87,0,1,0-.871-.87A.871.871,0,0,0,78,89.671Z" fill="#8a8a8f"/>
    <path id="Path_72" data-name="Path 72" d="M78.875,80.1a.871.871,0,1,1-.871-.87A.871.871,0,0,1,78.875,80.1Z" fill="#8a8a8f"/>
    <path id="Path_73" data-name="Path 73" d="M78,72.262a.87.87,0,1,0-.871-.87A.871.871,0,0,0,78,72.262Z" fill="#8a8a8f"/>
    <path id="Path_74" data-name="Path 74" d="M78.875,62.686A.871.871,0,1,1,78,61.816.871.871,0,0,1,78.875,62.686Z" fill="#8a8a8f"/>
    <path id="Path_75" data-name="Path 75" d="M78,54.852a.87.87,0,1,0-.871-.87A.871.871,0,0,0,78,54.852Z" fill="#8a8a8f"/>
    <path id="Path_76" data-name="Path 76" d="M78.875,45.277a.871.871,0,1,1-.871-.87A.871.871,0,0,1,78.875,45.277Z" fill="#8a8a8f"/>
    <path id="Path_77" data-name="Path 77" d="M78,37.443a.871.871,0,1,0-.871-.87A.871.871,0,0,0,78,37.443Z" fill="#8a8a8f"/>
    <path id="Path_78" data-name="Path 78" d="M78.875,27.868A.871.871,0,1,1,78,27,.871.871,0,0,1,78.875,27.868Z" fill="#8a8a8f"/>
    <path id="Path_79" data-name="Path 79" d="M78,20.033a.87.87,0,1,0-.871-.87A.871.871,0,0,0,78,20.033Z" fill="#8a8a8f"/>
    <path id="Path_80" data-name="Path 80" d="M78.875,10.458A.871.871,0,1,1,78,9.588.871.871,0,0,1,78.875,10.458Z" fill="#8a8a8f"/>
    <path id="Path_81" data-name="Path 81" d="M78,2.624a.87.87,0,1,0-.871-.87A.871.871,0,0,0,78,2.624Z" fill="#8a8a8f"/>
    <path id="Path_82" data-name="Path 82" d="M69.3,106.21a.871.871,0,1,1-.871-.87A.87.87,0,0,1,69.3,106.21Z" fill="#8a8a8f"/>
    <path id="Path_83" data-name="Path 83" d="M68.424,98.376a.87.87,0,1,0-.871-.87A.871.871,0,0,0,68.424,98.376Z" fill="#8a8a8f"/>
    <path id="Path_84" data-name="Path 84" d="M69.3,88.8a.871.871,0,1,1-.871-.87A.871.871,0,0,1,69.3,88.8Z" fill="#8a8a8f"/>
    <path id="Path_85" data-name="Path 85" d="M68.424,80.966a.87.87,0,1,0-.871-.87A.871.871,0,0,0,68.424,80.966Z" fill="#8a8a8f"/>
    <path id="Path_86" data-name="Path 86" d="M69.3,71.391a.871.871,0,1,1-.871-.87A.871.871,0,0,1,69.3,71.391Z" fill="#8a8a8f"/>
    <path id="Path_87" data-name="Path 87" d="M68.424,63.557a.871.871,0,1,0-.871-.87A.871.871,0,0,0,68.424,63.557Z" fill="#8a8a8f"/>
    <path id="Path_88" data-name="Path 88" d="M69.3,53.982a.871.871,0,1,1-.871-.871A.871.871,0,0,1,69.3,53.982Z" fill="#8a8a8f"/>
    <path id="Path_89" data-name="Path 89" d="M68.424,46.147a.87.87,0,1,0-.871-.87A.871.871,0,0,0,68.424,46.147Z" fill="#8a8a8f"/>
    <path id="Path_90" data-name="Path 90" d="M69.3,36.572a.871.871,0,1,1-.871-.871A.871.871,0,0,1,69.3,36.572Z" fill="#8a8a8f"/>
    <path id="Path_91" data-name="Path 91" d="M68.424,28.738a.87.87,0,1,0-.871-.87A.871.871,0,0,0,68.424,28.738Z" fill="#8a8a8f"/>
    <path id="Path_92" data-name="Path 92" d="M69.3,19.163a.871.871,0,1,1-.871-.87A.871.871,0,0,1,69.3,19.163Z" fill="#8a8a8f"/>
    <path id="Path_93" data-name="Path 93" d="M68.424,11.328a.87.87,0,1,0-.871-.87A.871.871,0,0,0,68.424,11.328Z" fill="#8a8a8f"/>
    <path id="Path_94" data-name="Path 94" d="M69.3,1.753a.871.871,0,1,1-.871-.87A.871.871,0,0,1,69.3,1.753Z" fill="#8a8a8f"/>
    <path id="Path_95" data-name="Path 95" d="M58.845,107.08a.87.87,0,1,0-.871-.87A.87.87,0,0,0,58.845,107.08Z" fill="#8a8a8f"/>
    <path id="Path_96" data-name="Path 96" d="M59.716,97.505a.871.871,0,1,1-.871-.87A.871.871,0,0,1,59.716,97.505Z" fill="#8a8a8f"/>
    <path id="Path_97" data-name="Path 97" d="M58.845,89.671a.87.87,0,1,0-.871-.87A.871.871,0,0,0,58.845,89.671Z" fill="#8a8a8f"/>
    <path id="Path_98" data-name="Path 98" d="M59.716,80.1a.871.871,0,1,1-.871-.87A.871.871,0,0,1,59.716,80.1Z" fill="#8a8a8f"/>
    <path id="Path_99" data-name="Path 99" d="M58.845,72.262a.87.87,0,1,0-.871-.87A.871.871,0,0,0,58.845,72.262Z" fill="#8a8a8f"/>
    <path id="Path_100" data-name="Path 100" d="M59.716,62.686a.871.871,0,1,1-.871-.871A.871.871,0,0,1,59.716,62.686Z" fill="#8a8a8f"/>
    <path id="Path_101" data-name="Path 101" d="M58.845,54.852a.87.87,0,1,0-.871-.87A.871.871,0,0,0,58.845,54.852Z" fill="#8a8a8f"/>
    <path id="Path_102" data-name="Path 102" d="M59.716,45.277a.871.871,0,1,1-.871-.87A.871.871,0,0,1,59.716,45.277Z" fill="#8a8a8f"/>
    <path id="Path_103" data-name="Path 103" d="M58.845,37.443a.871.871,0,1,0-.871-.87A.871.871,0,0,0,58.845,37.443Z" fill="#8a8a8f"/>
    <path id="Path_104" data-name="Path 104" d="M59.716,27.868A.871.871,0,1,1,58.845,27,.871.871,0,0,1,59.716,27.868Z" fill="#8a8a8f"/>
    <path id="Path_105" data-name="Path 105" d="M58.845,20.033a.87.87,0,1,0-.871-.87A.871.871,0,0,0,58.845,20.033Z" fill="#8a8a8f"/>
    <path id="Path_106" data-name="Path 106" d="M59.716,10.458a.871.871,0,1,1-.871-.87A.871.871,0,0,1,59.716,10.458Z" fill="#8a8a8f"/>
    <path id="Path_107" data-name="Path 107" d="M58.845,2.624a.87.87,0,1,0-.871-.87A.871.871,0,0,0,58.845,2.624Z" fill="#8a8a8f"/>
    <path id="Path_108" data-name="Path 108" d="M50.136,106.21a.871.871,0,1,1-.871-.87A.87.87,0,0,1,50.136,106.21Z" fill="#8a8a8f"/>
    <path id="Path_109" data-name="Path 109" d="M49.265,98.376a.87.87,0,1,0-.871-.87A.871.871,0,0,0,49.265,98.376Z" fill="#8a8a8f"/>
    <path id="Path_110" data-name="Path 110" d="M50.136,88.8a.871.871,0,1,1-.871-.87A.871.871,0,0,1,50.136,88.8Z" fill="#8a8a8f"/>
    <path id="Path_111" data-name="Path 111" d="M49.265,80.966a.87.87,0,1,0-.871-.87A.871.871,0,0,0,49.265,80.966Z" fill="#8a8a8f"/>
    <path id="Path_112" data-name="Path 112" d="M50.136,71.391a.871.871,0,1,1-.871-.87A.871.871,0,0,1,50.136,71.391Z" fill="#8a8a8f"/>
    <path id="Path_113" data-name="Path 113" d="M49.265,63.557a.871.871,0,1,0-.871-.87A.871.871,0,0,0,49.265,63.557Z" fill="#8a8a8f"/>
    <path id="Path_114" data-name="Path 114" d="M50.136,53.982a.871.871,0,1,1-.871-.871A.871.871,0,0,1,50.136,53.982Z" fill="#8a8a8f"/>
    <path id="Path_115" data-name="Path 115" d="M49.265,46.147a.87.87,0,1,0-.871-.87A.871.871,0,0,0,49.265,46.147Z" fill="#8a8a8f"/>
    <path id="Path_116" data-name="Path 116" d="M50.136,36.572a.871.871,0,1,1-.871-.871A.871.871,0,0,1,50.136,36.572Z" fill="#8a8a8f"/>
    <path id="Path_117" data-name="Path 117" d="M49.265,28.738a.87.87,0,1,0-.871-.87A.871.871,0,0,0,49.265,28.738Z" fill="#8a8a8f"/>
    <path id="Path_118" data-name="Path 118" d="M50.136,19.163a.871.871,0,1,1-.871-.87A.871.871,0,0,1,50.136,19.163Z" fill="#8a8a8f"/>
    <path id="Path_119" data-name="Path 119" d="M49.265,11.328a.87.87,0,1,0-.871-.87A.871.871,0,0,0,49.265,11.328Z" fill="#8a8a8f"/>
    <path id="Path_120" data-name="Path 120" d="M50.136,1.753a.871.871,0,1,1-.871-.87A.871.871,0,0,1,50.136,1.753Z" fill="#8a8a8f"/>
    <path id="Path_121" data-name="Path 121" d="M39.685,107.08a.87.87,0,1,0-.871-.87A.87.87,0,0,0,39.685,107.08Z" fill="#8a8a8f"/>
    <path id="Path_122" data-name="Path 122" d="M40.556,97.505a.871.871,0,1,1-.871-.87A.871.871,0,0,1,40.556,97.505Z" fill="#8a8a8f"/>
    <path id="Path_123" data-name="Path 123" d="M39.685,89.671a.87.87,0,1,0-.871-.87A.871.871,0,0,0,39.685,89.671Z" fill="#8a8a8f"/>
    <path id="Path_124" data-name="Path 124" d="M40.556,80.1a.871.871,0,1,1-.871-.87A.871.871,0,0,1,40.556,80.1Z" fill="#8a8a8f"/>
    <path id="Path_125" data-name="Path 125" d="M39.685,72.262a.87.87,0,1,0-.871-.87A.871.871,0,0,0,39.685,72.262Z" fill="#8a8a8f"/>
    <path id="Path_126" data-name="Path 126" d="M40.556,62.686a.871.871,0,1,1-.871-.871A.871.871,0,0,1,40.556,62.686Z" fill="#8a8a8f"/>
    <path id="Path_127" data-name="Path 127" d="M39.685,54.852a.87.87,0,1,0-.871-.87A.871.871,0,0,0,39.685,54.852Z" fill="#8a8a8f"/>
    <path id="Path_128" data-name="Path 128" d="M40.556,45.277a.871.871,0,1,1-.871-.87A.871.871,0,0,1,40.556,45.277Z" fill="#8a8a8f"/>
    <path id="Path_129" data-name="Path 129" d="M39.685,37.443a.871.871,0,1,0-.871-.87A.871.871,0,0,0,39.685,37.443Z" fill="#8a8a8f"/>
    <path id="Path_130" data-name="Path 130" d="M40.556,27.868A.871.871,0,1,1,39.685,27,.871.871,0,0,1,40.556,27.868Z" fill="#8a8a8f"/>
    <path id="Path_131" data-name="Path 131" d="M39.685,20.033a.87.87,0,1,0-.871-.87A.871.871,0,0,0,39.685,20.033Z" fill="#8a8a8f"/>
    <path id="Path_132" data-name="Path 132" d="M40.556,10.458a.871.871,0,1,1-.871-.87A.871.871,0,0,1,40.556,10.458Z" fill="#8a8a8f"/>
    <path id="Path_133" data-name="Path 133" d="M39.685,2.624a.87.87,0,1,0-.871-.87A.871.871,0,0,0,39.685,2.624Z" fill="#8a8a8f"/>
    <path id="Path_134" data-name="Path 134" d="M30.976,106.21a.871.871,0,1,1-.871-.87A.87.87,0,0,1,30.976,106.21Z" fill="#8a8a8f"/>
    <path id="Path_135" data-name="Path 135" d="M30.105,98.376a.87.87,0,1,0-.871-.87A.871.871,0,0,0,30.105,98.376Z" fill="#8a8a8f"/>
    <path id="Path_136" data-name="Path 136" d="M30.976,88.8a.871.871,0,1,1-.871-.87A.871.871,0,0,1,30.976,88.8Z" fill="#8a8a8f"/>
    <path id="Path_137" data-name="Path 137" d="M30.105,80.966a.87.87,0,1,0-.871-.87A.871.871,0,0,0,30.105,80.966Z" fill="#8a8a8f"/>
    <path id="Path_138" data-name="Path 138" d="M30.976,71.391a.871.871,0,1,1-.871-.87A.871.871,0,0,1,30.976,71.391Z" fill="#8a8a8f"/>
    <path id="Path_139" data-name="Path 139" d="M30.105,63.557a.871.871,0,1,0-.871-.87A.871.871,0,0,0,30.105,63.557Z" fill="#8a8a8f"/>
    <path id="Path_140" data-name="Path 140" d="M30.976,53.982a.871.871,0,1,1-.871-.871A.871.871,0,0,1,30.976,53.982Z" fill="#8a8a8f"/>
    <path id="Path_141" data-name="Path 141" d="M30.105,46.147a.87.87,0,1,0-.871-.87A.871.871,0,0,0,30.105,46.147Z" fill="#8a8a8f"/>
    <path id="Path_142" data-name="Path 142" d="M30.976,36.572a.871.871,0,1,1-.871-.871A.871.871,0,0,1,30.976,36.572Z" fill="#8a8a8f"/>
    <path id="Path_143" data-name="Path 143" d="M30.105,28.738a.87.87,0,1,0-.871-.87A.871.871,0,0,0,30.105,28.738Z" fill="#8a8a8f"/>
    <path id="Path_144" data-name="Path 144" d="M30.976,19.163a.871.871,0,1,1-.871-.87A.871.871,0,0,1,30.976,19.163Z" fill="#8a8a8f"/>
    <path id="Path_145" data-name="Path 145" d="M30.105,11.328a.87.87,0,1,0-.871-.87A.871.871,0,0,0,30.105,11.328Z" fill="#8a8a8f"/>
    <path id="Path_146" data-name="Path 146" d="M30.976,1.753a.871.871,0,1,1-.871-.87A.871.871,0,0,1,30.976,1.753Z" fill="#8a8a8f"/>
    <path id="Path_147" data-name="Path 147" d="M20.526,107.08a.87.87,0,1,0-.871-.87A.87.87,0,0,0,20.526,107.08Z" fill="#8a8a8f"/>
    <path id="Path_148" data-name="Path 148" d="M21.4,97.505a.871.871,0,1,1-.871-.87A.871.871,0,0,1,21.4,97.505Z" fill="#8a8a8f"/>
    <path id="Path_149" data-name="Path 149" d="M20.526,89.671a.87.87,0,1,0-.871-.87A.871.871,0,0,0,20.526,89.671Z" fill="#8a8a8f"/>
    <path id="Path_150" data-name="Path 150" d="M21.4,80.1a.871.871,0,1,1-.871-.87A.871.871,0,0,1,21.4,80.1Z" fill="#8a8a8f"/>
    <path id="Path_151" data-name="Path 151" d="M20.526,72.262a.87.87,0,1,0-.871-.87A.871.871,0,0,0,20.526,72.262Z" fill="#8a8a8f"/>
    <path id="Path_152" data-name="Path 152" d="M21.4,62.686a.871.871,0,1,1-.871-.871A.871.871,0,0,1,21.4,62.686Z" fill="#8a8a8f"/>
    <path id="Path_153" data-name="Path 153" d="M20.526,54.852a.87.87,0,1,0-.871-.87A.871.871,0,0,0,20.526,54.852Z" fill="#8a8a8f"/>
    <path id="Path_154" data-name="Path 154" d="M21.4,45.277a.871.871,0,1,1-.871-.87A.871.871,0,0,1,21.4,45.277Z" fill="#8a8a8f"/>
    <path id="Path_155" data-name="Path 155" d="M20.526,37.443a.871.871,0,1,0-.871-.87A.871.871,0,0,0,20.526,37.443Z" fill="#8a8a8f"/>
    <path id="Path_156" data-name="Path 156" d="M21.4,27.868A.871.871,0,1,1,20.526,27,.871.871,0,0,1,21.4,27.868Z" fill="#8a8a8f"/>
    <path id="Path_157" data-name="Path 157" d="M20.526,20.033a.87.87,0,1,0-.871-.87A.871.871,0,0,0,20.526,20.033Z" fill="#8a8a8f"/>
    <path id="Path_158" data-name="Path 158" d="M21.4,10.458a.871.871,0,1,1-.871-.87A.871.871,0,0,1,21.4,10.458Z" fill="#8a8a8f"/>
    <path id="Path_159" data-name="Path 159" d="M20.526,2.624a.87.87,0,1,0-.871-.87A.871.871,0,0,0,20.526,2.624Z" fill="#8a8a8f"/>
    <path id="Path_160" data-name="Path 160" d="M11.817,106.21a.871.871,0,1,1-.871-.87A.87.87,0,0,1,11.817,106.21Z" fill="#8a8a8f"/>
    <path id="Path_161" data-name="Path 161" d="M10.946,98.376a.87.87,0,1,0-.871-.87A.871.871,0,0,0,10.946,98.376Z" fill="#8a8a8f"/>
    <path id="Path_162" data-name="Path 162" d="M11.817,88.8a.871.871,0,1,1-.871-.87A.871.871,0,0,1,11.817,88.8Z" fill="#8a8a8f"/>
    <path id="Path_163" data-name="Path 163" d="M10.946,80.966a.87.87,0,1,0-.871-.87A.871.871,0,0,0,10.946,80.966Z" fill="#8a8a8f"/>
    <path id="Path_164" data-name="Path 164" d="M11.817,71.391a.871.871,0,1,1-.871-.87A.871.871,0,0,1,11.817,71.391Z" fill="#8a8a8f"/>
    <path id="Path_165" data-name="Path 165" d="M10.946,63.557a.871.871,0,1,0-.871-.87A.871.871,0,0,0,10.946,63.557Z" fill="#8a8a8f"/>
    <path id="Path_166" data-name="Path 166" d="M11.817,53.982a.871.871,0,1,1-.871-.871A.871.871,0,0,1,11.817,53.982Z" fill="#8a8a8f"/>
    <path id="Path_167" data-name="Path 167" d="M10.946,46.147a.87.87,0,1,0-.871-.87A.871.871,0,0,0,10.946,46.147Z" fill="#8a8a8f"/>
    <path id="Path_168" data-name="Path 168" d="M11.817,36.572a.871.871,0,1,1-.871-.871A.871.871,0,0,1,11.817,36.572Z" fill="#8a8a8f"/>
    <path id="Path_169" data-name="Path 169" d="M10.946,28.738a.87.87,0,1,0-.871-.87A.871.871,0,0,0,10.946,28.738Z" fill="#8a8a8f"/>
    <path id="Path_170" data-name="Path 170" d="M11.817,19.163a.871.871,0,1,1-.871-.87A.871.871,0,0,1,11.817,19.163Z" fill="#8a8a8f"/>
    <path id="Path_171" data-name="Path 171" d="M10.946,11.328a.87.87,0,1,0-.871-.87A.871.871,0,0,0,10.946,11.328Z" fill="#8a8a8f"/>
    <path id="Path_172" data-name="Path 172" d="M11.817,1.753a.871.871,0,1,1-.871-.87A.871.871,0,0,1,11.817,1.753Z" fill="#8a8a8f"/>
    <path id="Path_173" data-name="Path 173" d="M1.366,107.08a.87.87,0,1,0-.871-.87A.87.87,0,0,0,1.366,107.08Z" fill="#8a8a8f"/>
    <path id="Path_174" data-name="Path 174" d="M2.237,97.505a.871.871,0,1,1-.871-.87A.871.871,0,0,1,2.237,97.505Z" fill="#8a8a8f"/>
    <path id="Path_175" data-name="Path 175" d="M1.366,89.671A.87.87,0,1,0,.5,88.8.871.871,0,0,0,1.366,89.671Z" fill="#8a8a8f"/>
    <path id="Path_176" data-name="Path 176" d="M2.237,80.1a.871.871,0,1,1-.871-.87A.871.871,0,0,1,2.237,80.1Z" fill="#8a8a8f"/>
    <path id="Path_177" data-name="Path 177" d="M1.366,72.262a.87.87,0,1,0-.871-.87A.871.871,0,0,0,1.366,72.262Z" fill="#8a8a8f"/>
    <path id="Path_178" data-name="Path 178" d="M2.237,62.686a.871.871,0,1,1-.871-.871A.871.871,0,0,1,2.237,62.686Z" fill="#8a8a8f"/>
    <path id="Path_179" data-name="Path 179" d="M1.366,54.852a.87.87,0,1,0-.871-.87A.871.871,0,0,0,1.366,54.852Z" fill="#8a8a8f"/>
    <path id="Path_180" data-name="Path 180" d="M2.237,45.277a.871.871,0,1,1-.871-.87A.871.871,0,0,1,2.237,45.277Z" fill="#8a8a8f"/>
    <path id="Path_181" data-name="Path 181" d="M1.366,37.443a.871.871,0,1,0-.871-.87A.871.871,0,0,0,1.366,37.443Z" fill="#8a8a8f"/>
    <path id="Path_182" data-name="Path 182" d="M2.237,27.868A.871.871,0,1,1,1.366,27,.871.871,0,0,1,2.237,27.868Z" fill="#8a8a8f"/>
    <path id="Path_183" data-name="Path 183" d="M1.366,20.033a.87.87,0,1,0-.871-.87A.871.871,0,0,0,1.366,20.033Z" fill="#8a8a8f"/>
    <path id="Path_184" data-name="Path 184" d="M2.237,10.458a.871.871,0,1,1-.871-.87A.871.871,0,0,1,2.237,10.458Z" fill="#8a8a8f"/>
    <path id="Path_185" data-name="Path 185" d="M1.366,2.624A.87.87,0,1,0,.5,1.753.871.871,0,0,0,1.366,2.624Z" fill="#8a8a8f"/>
    <path id="Path_186" data-name="Path 186" d="M125.9,115.785a.871.871,0,1,0-.871-.87A.871.871,0,0,0,125.9,115.785Z" fill="#8a8a8f"/>
    <path id="Path_187" data-name="Path 187" d="M116.323,115.785a.871.871,0,1,0-.871-.87A.871.871,0,0,0,116.323,115.785Z" fill="#8a8a8f"/>
    <path id="Path_188" data-name="Path 188" d="M107.614,114.915a.87.87,0,1,1-.87-.871A.87.87,0,0,1,107.614,114.915Z" fill="#8a8a8f"/>
    <path id="Path_189" data-name="Path 189" d="M97.164,115.785a.871.871,0,1,0-.871-.87A.871.871,0,0,0,97.164,115.785Z" fill="#8a8a8f"/>
    <path id="Path_190" data-name="Path 190" d="M88.455,114.915a.871.871,0,1,1-.871-.871A.871.871,0,0,1,88.455,114.915Z" fill="#8a8a8f"/>
    <path id="Path_191" data-name="Path 191" d="M78,115.785a.871.871,0,1,0-.871-.87A.871.871,0,0,0,78,115.785Z" fill="#8a8a8f"/>
    <path id="Path_192" data-name="Path 192" d="M69.3,114.915a.871.871,0,1,1-.871-.871A.871.871,0,0,1,69.3,114.915Z" fill="#8a8a8f"/>
    <path id="Path_193" data-name="Path 193" d="M58.845,115.785a.871.871,0,1,0-.871-.87A.871.871,0,0,0,58.845,115.785Z" fill="#8a8a8f"/>
    <path id="Path_194" data-name="Path 194" d="M50.136,114.915a.871.871,0,1,1-.871-.871A.871.871,0,0,1,50.136,114.915Z" fill="#8a8a8f"/>
    <path id="Path_195" data-name="Path 195" d="M39.685,115.785a.871.871,0,1,0-.871-.87A.871.871,0,0,0,39.685,115.785Z" fill="#8a8a8f"/>
    <path id="Path_196" data-name="Path 196" d="M30.976,114.915a.871.871,0,1,1-.871-.871A.871.871,0,0,1,30.976,114.915Z" fill="#8a8a8f"/>
    <path id="Path_197" data-name="Path 197" d="M20.526,115.785a.871.871,0,1,0-.871-.87A.871.871,0,0,0,20.526,115.785Z" fill="#8a8a8f"/>
    <path id="Path_198" data-name="Path 198" d="M11.817,114.915a.871.871,0,1,1-.871-.871A.871.871,0,0,1,11.817,114.915Z" fill="#8a8a8f"/>
    <path id="Path_199" data-name="Path 199" d="M1.366,115.785a.871.871,0,1,0-.871-.87A.871.871,0,0,0,1.366,115.785Z" fill="#8a8a8f"/>
  </g>
</svg>
